solid Visualization Toolkit generated SLA File
 facet normal -1 0 0
  outer loop
   vertex 623.00067138671875 70.003028869628906 95
   vertex 623.00067138671875 65.003028869628906 425
   vertex 623.00067138671875 70.003028869628906 425
  endloop
 endfacet
 facet normal -1 0 0
  outer loop
   vertex 623.00067138671875 65.003028869628906 95
   vertex 623.00067138671875 65.003028869628906 425
   vertex 623.00067138671875 70.003028869628906 95
  endloop
 endfacet
 facet normal 0 0 -1
  outer loop
   vertex 625.00067138671875 65.003028869628906 95
   vertex 623.00067138671875 70.003028869628906 95
   vertex 625.00067138671875 70.003028869628906 95
  endloop
 endfacet
 facet normal 0 0 -1
  outer loop
   vertex 623.00067138671875 65.003028869628906 95
   vertex 623.00067138671875 70.003028869628906 95
   vertex 625.00067138671875 65.003028869628906 95
  endloop
 endfacet
 facet normal -0 1 0
  outer loop
   vertex 625.00067138671875 70.003028869628906 95
   vertex 623.00067138671875 70.003028869628906 425
   vertex 625.00067138671875 70.003028869628906 425
  endloop
 endfacet
 facet normal 0 1 0
  outer loop
   vertex 623.00067138671875 70.003028869628906 95
   vertex 623.00067138671875 70.003028869628906 425
   vertex 625.00067138671875 70.003028869628906 95
  endloop
 endfacet
 facet normal 0 0 1
  outer loop
   vertex 623.00067138671875 65.003028869628906 425
   vertex 625.00067138671875 70.003028869628906 425
   vertex 623.00067138671875 70.003028869628906 425
  endloop
 endfacet
 facet normal 0 0 1
  outer loop
   vertex 625.00067138671875 65.003028869628906 425
   vertex 625.00067138671875 70.003028869628906 425
   vertex 623.00067138671875 65.003028869628906 425
  endloop
 endfacet
 facet normal -0 -1 0
  outer loop
   vertex 623.00067138671875 65.003028869628906 95
   vertex 625.00067138671875 65.003028869628906 425
   vertex 623.00067138671875 65.003028869628906 425
  endloop
 endfacet
 facet normal 0 -1 -0
  outer loop
   vertex 625.00067138671875 65.003028869628906 95
   vertex 625.00067138671875 65.003028869628906 425
   vertex 623.00067138671875 65.003028869628906 95
  endloop
 endfacet
 facet normal 1 0 0
  outer loop
   vertex 625.00067138671875 65.003028869628906 95
   vertex 625.00067138671875 70.003028869628906 425
   vertex 625.00067138671875 65.003028869628906 425
  endloop
 endfacet
 facet normal 1 0 0
  outer loop
   vertex 625.00067138671875 70.003028869628906 95
   vertex 625.00067138671875 70.003028869628906 425
   vertex 625.00067138671875 65.003028869628906 95
  endloop
 endfacet
 facet normal -1 0 0
  outer loop
   vertex 620.95062255859375 415.00302124023438 95
   vertex 620.95062255859375 410.00302124023438 425
   vertex 620.95062255859375 415.00302124023438 425
  endloop
 endfacet
 facet normal -1 0 0
  outer loop
   vertex 620.95062255859375 410.00302124023438 95
   vertex 620.95062255859375 410.00302124023438 425
   vertex 620.95062255859375 415.00302124023438 95
  endloop
 endfacet
 facet normal 0 0 -1
  outer loop
   vertex 622.95062255859375 410.00302124023438 95
   vertex 620.95062255859375 415.00302124023438 95
   vertex 622.95062255859375 415.00302124023438 95
  endloop
 endfacet
 facet normal 0 0 -1
  outer loop
   vertex 620.95062255859375 410.00302124023438 95
   vertex 620.95062255859375 415.00302124023438 95
   vertex 622.95062255859375 410.00302124023438 95
  endloop
 endfacet
 facet normal -0 1 0
  outer loop
   vertex 622.95062255859375 415.00302124023438 95
   vertex 620.95062255859375 415.00302124023438 425
   vertex 622.95062255859375 415.00302124023438 425
  endloop
 endfacet
 facet normal 0 1 0
  outer loop
   vertex 620.95062255859375 415.00302124023438 95
   vertex 620.95062255859375 415.00302124023438 425
   vertex 622.95062255859375 415.00302124023438 95
  endloop
 endfacet
 facet normal 0 0 1
  outer loop
   vertex 620.95062255859375 410.00302124023438 425
   vertex 622.95062255859375 415.00302124023438 425
   vertex 620.95062255859375 415.00302124023438 425
  endloop
 endfacet
 facet normal 0 0 1
  outer loop
   vertex 622.95062255859375 410.00302124023438 425
   vertex 622.95062255859375 415.00302124023438 425
   vertex 620.95062255859375 410.00302124023438 425
  endloop
 endfacet
 facet normal -0 -1 0
  outer loop
   vertex 620.95062255859375 410.00302124023438 95
   vertex 622.95062255859375 410.00302124023438 425
   vertex 620.95062255859375 410.00302124023438 425
  endloop
 endfacet
 facet normal 0 -1 -0
  outer loop
   vertex 622.95062255859375 410.00302124023438 95
   vertex 622.95062255859375 410.00302124023438 425
   vertex 620.95062255859375 410.00302124023438 95
  endloop
 endfacet
 facet normal 1 0 0
  outer loop
   vertex 622.95062255859375 410.00302124023438 95
   vertex 622.95062255859375 415.00302124023438 425
   vertex 622.95062255859375 410.00302124023438 425
  endloop
 endfacet
 facet normal 1 0 0
  outer loop
   vertex 622.95062255859375 415.00302124023438 95
   vertex 622.95062255859375 415.00302124023438 425
   vertex 622.95062255859375 410.00302124023438 95
  endloop
 endfacet
 facet normal -1 0 0
  outer loop
   vertex 625.00067138671875 415.00302124023438 95
   vertex 625.00067138671875 410.00302124023438 425
   vertex 625.00067138671875 415.00302124023438 425
  endloop
 endfacet
 facet normal -1 0 0
  outer loop
   vertex 625.00067138671875 410.00302124023438 95
   vertex 625.00067138671875 410.00302124023438 425
   vertex 625.00067138671875 415.00302124023438 95
  endloop
 endfacet
 facet normal 0 0 -1
  outer loop
   vertex 626.95062255859375 410.00302124023438 95
   vertex 625.00067138671875 415.00302124023438 95
   vertex 626.95062255859375 415.00302124023438 95
  endloop
 endfacet
 facet normal 0 0 -1
  outer loop
   vertex 625.00067138671875 410.00302124023438 95
   vertex 625.00067138671875 415.00302124023438 95
   vertex 626.95062255859375 410.00302124023438 95
  endloop
 endfacet
 facet normal -0 1 0
  outer loop
   vertex 626.95062255859375 415.00302124023438 95
   vertex 625.00067138671875 415.00302124023438 425
   vertex 626.95062255859375 415.00302124023438 425
  endloop
 endfacet
 facet normal 0 1 0
  outer loop
   vertex 625.00067138671875 415.00302124023438 95
   vertex 625.00067138671875 415.00302124023438 425
   vertex 626.95062255859375 415.00302124023438 95
  endloop
 endfacet
 facet normal 0 0 1
  outer loop
   vertex 625.00067138671875 410.00302124023438 425
   vertex 626.95062255859375 415.00302124023438 425
   vertex 625.00067138671875 415.00302124023438 425
  endloop
 endfacet
 facet normal 0 0 1
  outer loop
   vertex 626.95062255859375 410.00302124023438 425
   vertex 626.95062255859375 415.00302124023438 425
   vertex 625.00067138671875 410.00302124023438 425
  endloop
 endfacet
 facet normal -0 -1 0
  outer loop
   vertex 625.00067138671875 410.00302124023438 95
   vertex 626.95062255859375 410.00302124023438 425
   vertex 625.00067138671875 410.00302124023438 425
  endloop
 endfacet
 facet normal 0 -1 -0
  outer loop
   vertex 626.95062255859375 410.00302124023438 95
   vertex 626.95062255859375 410.00302124023438 425
   vertex 625.00067138671875 410.00302124023438 95
  endloop
 endfacet
 facet normal 1 0 0
  outer loop
   vertex 626.95062255859375 410.00302124023438 95
   vertex 626.95062255859375 415.00302124023438 425
   vertex 626.95062255859375 410.00302124023438 425
  endloop
 endfacet
 facet normal 1 0 0
  outer loop
   vertex 626.95062255859375 415.00302124023438 95
   vertex 626.95062255859375 415.00302124023438 425
   vertex 626.95062255859375 410.00302124023438 95
  endloop
 endfacet
 facet normal -1 0 0
  outer loop
   vertex 623.00067138671875 410.00302124023438 425
   vertex 623.00067138671875 415.00302124023438 95
   vertex 623.00067138671875 410.00302124023438 95
  endloop
 endfacet
 facet normal -1 0 0
  outer loop
   vertex 623.00067138671875 415.00302124023438 425
   vertex 623.00067138671875 415.00302124023438 95
   vertex 623.00067138671875 410.00302124023438 425
  endloop
 endfacet
 facet normal 0 0 1
  outer loop
   vertex 625.00067138671875 415.00302124023438 425
   vertex 623.00067138671875 410.00302124023438 425
   vertex 625.00067138671875 410.00302124023438 425
  endloop
 endfacet
 facet normal 0 0 1
  outer loop
   vertex 623.00067138671875 415.00302124023438 425
   vertex 623.00067138671875 410.00302124023438 425
   vertex 625.00067138671875 415.00302124023438 425
  endloop
 endfacet
 facet normal 0 -1 0
  outer loop
   vertex 625.00067138671875 410.00302124023438 425
   vertex 623.00067138671875 410.00302124023438 95
   vertex 625.00067138671875 410.00302124023438 95
  endloop
 endfacet
 facet normal 0 -1 0
  outer loop
   vertex 623.00067138671875 410.00302124023438 425
   vertex 623.00067138671875 410.00302124023438 95
   vertex 625.00067138671875 410.00302124023438 425
  endloop
 endfacet
 facet normal 0 0 -1
  outer loop
   vertex 623.00067138671875 415.00302124023438 95
   vertex 625.00067138671875 410.00302124023438 95
   vertex 623.00067138671875 410.00302124023438 95
  endloop
 endfacet
 facet normal 0 0 -1
  outer loop
   vertex 625.00067138671875 415.00302124023438 95
   vertex 625.00067138671875 410.00302124023438 95
   vertex 623.00067138671875 415.00302124023438 95
  endloop
 endfacet
 facet normal 0 1 0
  outer loop
   vertex 623.00067138671875 415.00302124023438 425
   vertex 625.00067138671875 415.00302124023438 95
   vertex 623.00067138671875 415.00302124023438 95
  endloop
 endfacet
 facet normal 0 1 -0
  outer loop
   vertex 625.00067138671875 415.00302124023438 425
   vertex 625.00067138671875 415.00302124023438 95
   vertex 623.00067138671875 415.00302124023438 425
  endloop
 endfacet
 facet normal 1 0 0
  outer loop
   vertex 625.00067138671875 415.00302124023438 425
   vertex 625.00067138671875 410.00302124023438 95
   vertex 625.00067138671875 415.00302124023438 95
  endloop
 endfacet
 facet normal 1 0 0
  outer loop
   vertex 625.00067138671875 410.00302124023438 425
   vertex 625.00067138671875 410.00302124023438 95
   vertex 625.00067138671875 415.00302124023438 425
  endloop
 endfacet
 facet normal -1 0 -0
  outer loop
   vertex 620.95062255859375 75.003028869628906 430
   vertex 620.95062255859375 405.00302124023438 435
   vertex 620.95062255859375 405.00302124023438 430
  endloop
 endfacet
 facet normal -1 -0 0
  outer loop
   vertex 620.95062255859375 75.003028869628906 435
   vertex 620.95062255859375 405.00302124023438 435
   vertex 620.95062255859375 75.003028869628906 430
  endloop
 endfacet
 facet normal 0 -1 0
  outer loop
   vertex 622.95062255859375 75.003028869628906 435
   vertex 620.95062255859375 75.003028869628906 430
   vertex 622.95062255859375 75.003028869628906 430
  endloop
 endfacet
 facet normal 0 -1 0
  outer loop
   vertex 620.95062255859375 75.003028869628906 435
   vertex 620.95062255859375 75.003028869628906 430
   vertex 622.95062255859375 75.003028869628906 435
  endloop
 endfacet
 facet normal 0 0 -1
  outer loop
   vertex 622.95062255859375 75.003028869628906 430
   vertex 620.95062255859375 405.00302124023438 430
   vertex 622.95062255859375 405.00302124023438 430
  endloop
 endfacet
 facet normal 0 0 -1
  outer loop
   vertex 620.95062255859375 75.003028869628906 430
   vertex 620.95062255859375 405.00302124023438 430
   vertex 622.95062255859375 75.003028869628906 430
  endloop
 endfacet
 facet normal 0 1 0
  outer loop
   vertex 620.95062255859375 405.00302124023438 435
   vertex 622.95062255859375 405.00302124023438 430
   vertex 620.95062255859375 405.00302124023438 430
  endloop
 endfacet
 facet normal 0 1 -0
  outer loop
   vertex 622.95062255859375 405.00302124023438 435
   vertex 622.95062255859375 405.00302124023438 430
   vertex 620.95062255859375 405.00302124023438 435
  endloop
 endfacet
 facet normal 0 0 1
  outer loop
   vertex 620.95062255859375 75.003028869628906 435
   vertex 622.95062255859375 405.00302124023438 435
   vertex 620.95062255859375 405.00302124023438 435
  endloop
 endfacet
 facet normal 0 0 1
  outer loop
   vertex 622.95062255859375 75.003028869628906 435
   vertex 622.95062255859375 405.00302124023438 435
   vertex 620.95062255859375 75.003028869628906 435
  endloop
 endfacet
 facet normal 1 0 -0
  outer loop
   vertex 622.95062255859375 75.003028869628906 435
   vertex 622.95062255859375 405.00302124023438 430
   vertex 622.95062255859375 405.00302124023438 435
  endloop
 endfacet
 facet normal 1 0 0
  outer loop
   vertex 622.95062255859375 75.003028869628906 430
   vertex 622.95062255859375 405.00302124023438 430
   vertex 622.95062255859375 75.003028869628906 435
  endloop
 endfacet
 facet normal -1 0 -0
  outer loop
   vertex 625.05072021484375 75.003028869628906 430
   vertex 625.05072021484375 405.00302124023438 435
   vertex 625.05072021484375 405.00302124023438 430
  endloop
 endfacet
 facet normal -1 -0 0
  outer loop
   vertex 625.05072021484375 75.003028869628906 435
   vertex 625.05072021484375 405.00302124023438 435
   vertex 625.05072021484375 75.003028869628906 430
  endloop
 endfacet
 facet normal 0 -1 0
  outer loop
   vertex 627.00067138671875 75.003028869628906 435
   vertex 625.05072021484375 75.003028869628906 430
   vertex 627.00067138671875 75.003028869628906 430
  endloop
 endfacet
 facet normal 0 -1 0
  outer loop
   vertex 625.05072021484375 75.003028869628906 435
   vertex 625.05072021484375 75.003028869628906 430
   vertex 627.00067138671875 75.003028869628906 435
  endloop
 endfacet
 facet normal 0 0 -1
  outer loop
   vertex 627.00067138671875 75.003028869628906 430
   vertex 625.05072021484375 405.00302124023438 430
   vertex 627.00067138671875 405.00302124023438 430
  endloop
 endfacet
 facet normal 0 0 -1
  outer loop
   vertex 625.05072021484375 75.003028869628906 430
   vertex 625.05072021484375 405.00302124023438 430
   vertex 627.00067138671875 75.003028869628906 430
  endloop
 endfacet
 facet normal 0 1 0
  outer loop
   vertex 625.05072021484375 405.00302124023438 435
   vertex 627.00067138671875 405.00302124023438 430
   vertex 625.05072021484375 405.00302124023438 430
  endloop
 endfacet
 facet normal 0 1 -0
  outer loop
   vertex 627.00067138671875 405.00302124023438 435
   vertex 627.00067138671875 405.00302124023438 430
   vertex 625.05072021484375 405.00302124023438 435
  endloop
 endfacet
 facet normal 0 0 1
  outer loop
   vertex 625.05072021484375 75.003028869628906 435
   vertex 627.00067138671875 405.00302124023438 435
   vertex 625.05072021484375 405.00302124023438 435
  endloop
 endfacet
 facet normal 0 0 1
  outer loop
   vertex 627.00067138671875 75.003028869628906 435
   vertex 627.00067138671875 405.00302124023438 435
   vertex 625.05072021484375 75.003028869628906 435
  endloop
 endfacet
 facet normal 1 0 -0
  outer loop
   vertex 627.00067138671875 75.003028869628906 435
   vertex 627.00067138671875 405.00302124023438 430
   vertex 627.00067138671875 405.00302124023438 435
  endloop
 endfacet
 facet normal 1 0 0
  outer loop
   vertex 627.00067138671875 75.003028869628906 430
   vertex 627.00067138671875 405.00302124023438 430
   vertex 627.00067138671875 75.003028869628906 435
  endloop
 endfacet
 facet normal -1 0 0
  outer loop
   vertex 623.00067138671875 405.00302124023438 435
   vertex 623.00067138671875 75.003028869628906 430
   vertex 623.00067138671875 75.003028869628906 435
  endloop
 endfacet
 facet normal -1 0 0
  outer loop
   vertex 623.00067138671875 405.00302124023438 430
   vertex 623.00067138671875 75.003028869628906 430
   vertex 623.00067138671875 405.00302124023438 435
  endloop
 endfacet
 facet normal -0 1 0
  outer loop
   vertex 625.00067138671875 405.00302124023438 430
   vertex 623.00067138671875 405.00302124023438 435
   vertex 625.00067138671875 405.00302124023438 435
  endloop
 endfacet
 facet normal 0 1 0
  outer loop
   vertex 623.00067138671875 405.00302124023438 430
   vertex 623.00067138671875 405.00302124023438 435
   vertex 625.00067138671875 405.00302124023438 430
  endloop
 endfacet
 facet normal 0 0 1
  outer loop
   vertex 625.00067138671875 405.00302124023438 435
   vertex 623.00067138671875 75.003028869628906 435
   vertex 625.00067138671875 75.003028869628906 435
  endloop
 endfacet
 facet normal 0 0 1
  outer loop
   vertex 623.00067138671875 405.00302124023438 435
   vertex 623.00067138671875 75.003028869628906 435
   vertex 625.00067138671875 405.00302124023438 435
  endloop
 endfacet
 facet normal -0 -1 0
  outer loop
   vertex 623.00067138671875 75.003028869628906 430
   vertex 625.00067138671875 75.003028869628906 435
   vertex 623.00067138671875 75.003028869628906 435
  endloop
 endfacet
 facet normal 0 -1 -0
  outer loop
   vertex 625.00067138671875 75.003028869628906 430
   vertex 625.00067138671875 75.003028869628906 435
   vertex 623.00067138671875 75.003028869628906 430
  endloop
 endfacet
 facet normal 0 0 -1
  outer loop
   vertex 623.00067138671875 405.00302124023438 430
   vertex 625.00067138671875 75.003028869628906 430
   vertex 623.00067138671875 75.003028869628906 430
  endloop
 endfacet
 facet normal 0 0 -1
  outer loop
   vertex 625.00067138671875 405.00302124023438 430
   vertex 625.00067138671875 75.003028869628906 430
   vertex 623.00067138671875 405.00302124023438 430
  endloop
 endfacet
 facet normal 1 0 0
  outer loop
   vertex 625.00067138671875 405.00302124023438 430
   vertex 625.00067138671875 75.003028869628906 435
   vertex 625.00067138671875 75.003028869628906 430
  endloop
 endfacet
 facet normal 1 -0 0
  outer loop
   vertex 625.00067138671875 405.00302124023438 435
   vertex 625.00067138671875 75.003028869628906 435
   vertex 625.00067138671875 405.00302124023438 430
  endloop
 endfacet
 facet normal -1 0 0
  outer loop
   vertex 625.05072021484375 65.003028869628906 425
   vertex 625.05072021484375 70.003028869628906 95
   vertex 625.05072021484375 65.003028869628906 95
  endloop
 endfacet
 facet normal -1 0 0
  outer loop
   vertex 625.05072021484375 70.003028869628906 425
   vertex 625.05072021484375 70.003028869628906 95
   vertex 625.05072021484375 65.003028869628906 425
  endloop
 endfacet
 facet normal 0 0 1
  outer loop
   vertex 627.00067138671875 70.003028869628906 425
   vertex 625.05072021484375 65.003028869628906 425
   vertex 627.00067138671875 65.003028869628906 425
  endloop
 endfacet
 facet normal 0 0 1
  outer loop
   vertex 625.05072021484375 70.003028869628906 425
   vertex 625.05072021484375 65.003028869628906 425
   vertex 627.00067138671875 70.003028869628906 425
  endloop
 endfacet
 facet normal 0 -1 0
  outer loop
   vertex 627.00067138671875 65.003028869628906 425
   vertex 625.05072021484375 65.003028869628906 95
   vertex 627.00067138671875 65.003028869628906 95
  endloop
 endfacet
 facet normal 0 -1 0
  outer loop
   vertex 625.05072021484375 65.003028869628906 425
   vertex 625.05072021484375 65.003028869628906 95
   vertex 627.00067138671875 65.003028869628906 425
  endloop
 endfacet
 facet normal 0 0 -1
  outer loop
   vertex 625.05072021484375 70.003028869628906 95
   vertex 627.00067138671875 65.003028869628906 95
   vertex 625.05072021484375 65.003028869628906 95
  endloop
 endfacet
 facet normal 0 0 -1
  outer loop
   vertex 627.00067138671875 70.003028869628906 95
   vertex 627.00067138671875 65.003028869628906 95
   vertex 625.05072021484375 70.003028869628906 95
  endloop
 endfacet
 facet normal 0 1 0
  outer loop
   vertex 625.05072021484375 70.003028869628906 425
   vertex 627.00067138671875 70.003028869628906 95
   vertex 625.05072021484375 70.003028869628906 95
  endloop
 endfacet
 facet normal 0 1 -0
  outer loop
   vertex 627.00067138671875 70.003028869628906 425
   vertex 627.00067138671875 70.003028869628906 95
   vertex 625.05072021484375 70.003028869628906 425
  endloop
 endfacet
 facet normal 1 0 0
  outer loop
   vertex 627.00067138671875 70.003028869628906 425
   vertex 627.00067138671875 65.003028869628906 95
   vertex 627.00067138671875 70.003028869628906 95
  endloop
 endfacet
 facet normal 1 0 0
  outer loop
   vertex 627.00067138671875 65.003028869628906 425
   vertex 627.00067138671875 65.003028869628906 95
   vertex 627.00067138671875 70.003028869628906 425
  endloop
 endfacet
 facet normal -1 0 -0
  outer loop
   vertex 623.00067138671875 75.003028869628906 85
   vertex 623.00067138671875 405.00302124023438 90
   vertex 623.00067138671875 405.00302124023438 85
  endloop
 endfacet
 facet normal -1 -0 0
  outer loop
   vertex 623.00067138671875 75.003028869628906 90
   vertex 623.00067138671875 405.00302124023438 90
   vertex 623.00067138671875 75.003028869628906 85
  endloop
 endfacet
 facet normal 0 -1 0
  outer loop
   vertex 625.00067138671875 75.003028869628906 90
   vertex 623.00067138671875 75.003028869628906 85
   vertex 625.00067138671875 75.003028869628906 85
  endloop
 endfacet
 facet normal 0 -1 0
  outer loop
   vertex 623.00067138671875 75.003028869628906 90
   vertex 623.00067138671875 75.003028869628906 85
   vertex 625.00067138671875 75.003028869628906 90
  endloop
 endfacet
 facet normal 0 0 -1
  outer loop
   vertex 625.00067138671875 75.003028869628906 85
   vertex 623.00067138671875 405.00302124023438 85
   vertex 625.00067138671875 405.00302124023438 85
  endloop
 endfacet
 facet normal 0 0 -1
  outer loop
   vertex 623.00067138671875 75.003028869628906 85
   vertex 623.00067138671875 405.00302124023438 85
   vertex 625.00067138671875 75.003028869628906 85
  endloop
 endfacet
 facet normal 0 1 0
  outer loop
   vertex 623.00067138671875 405.00302124023438 90
   vertex 625.00067138671875 405.00302124023438 85
   vertex 623.00067138671875 405.00302124023438 85
  endloop
 endfacet
 facet normal 0 1 -0
  outer loop
   vertex 625.00067138671875 405.00302124023438 90
   vertex 625.00067138671875 405.00302124023438 85
   vertex 623.00067138671875 405.00302124023438 90
  endloop
 endfacet
 facet normal 0 0 1
  outer loop
   vertex 623.00067138671875 75.003028869628906 90
   vertex 625.00067138671875 405.00302124023438 90
   vertex 623.00067138671875 405.00302124023438 90
  endloop
 endfacet
 facet normal 0 0 1
  outer loop
   vertex 625.00067138671875 75.003028869628906 90
   vertex 625.00067138671875 405.00302124023438 90
   vertex 623.00067138671875 75.003028869628906 90
  endloop
 endfacet
 facet normal 1 0 -0
  outer loop
   vertex 625.00067138671875 75.003028869628906 90
   vertex 625.00067138671875 405.00302124023438 85
   vertex 625.00067138671875 405.00302124023438 90
  endloop
 endfacet
 facet normal 1 0 0
  outer loop
   vertex 625.00067138671875 75.003028869628906 85
   vertex 625.00067138671875 405.00302124023438 85
   vertex 625.00067138671875 75.003028869628906 90
  endloop
 endfacet
 facet normal -1 0 0
  outer loop
   vertex 620.95062255859375 65.003028869628906 425
   vertex 620.95062255859375 70.003028869628906 95
   vertex 620.95062255859375 65.003028869628906 95
  endloop
 endfacet
 facet normal -1 0 0
  outer loop
   vertex 620.95062255859375 70.003028869628906 425
   vertex 620.95062255859375 70.003028869628906 95
   vertex 620.95062255859375 65.003028869628906 425
  endloop
 endfacet
 facet normal 0 0 1
  outer loop
   vertex 622.95062255859375 70.003028869628906 425
   vertex 620.95062255859375 65.003028869628906 425
   vertex 622.95062255859375 65.003028869628906 425
  endloop
 endfacet
 facet normal 0 0 1
  outer loop
   vertex 620.95062255859375 70.003028869628906 425
   vertex 620.95062255859375 65.003028869628906 425
   vertex 622.95062255859375 70.003028869628906 425
  endloop
 endfacet
 facet normal 0 -1 0
  outer loop
   vertex 622.95062255859375 65.003028869628906 425
   vertex 620.95062255859375 65.003028869628906 95
   vertex 622.95062255859375 65.003028869628906 95
  endloop
 endfacet
 facet normal 0 -1 0
  outer loop
   vertex 620.95062255859375 65.003028869628906 425
   vertex 620.95062255859375 65.003028869628906 95
   vertex 622.95062255859375 65.003028869628906 425
  endloop
 endfacet
 facet normal 0 0 -1
  outer loop
   vertex 620.95062255859375 70.003028869628906 95
   vertex 622.95062255859375 65.003028869628906 95
   vertex 620.95062255859375 65.003028869628906 95
  endloop
 endfacet
 facet normal 0 0 -1
  outer loop
   vertex 622.95062255859375 70.003028869628906 95
   vertex 622.95062255859375 65.003028869628906 95
   vertex 620.95062255859375 70.003028869628906 95
  endloop
 endfacet
 facet normal 0 1 0
  outer loop
   vertex 620.95062255859375 70.003028869628906 425
   vertex 622.95062255859375 70.003028869628906 95
   vertex 620.95062255859375 70.003028869628906 95
  endloop
 endfacet
 facet normal 0 1 -0
  outer loop
   vertex 622.95062255859375 70.003028869628906 425
   vertex 622.95062255859375 70.003028869628906 95
   vertex 620.95062255859375 70.003028869628906 425
  endloop
 endfacet
 facet normal 1 0 0
  outer loop
   vertex 622.95062255859375 70.003028869628906 425
   vertex 622.95062255859375 65.003028869628906 95
   vertex 622.95062255859375 70.003028869628906 95
  endloop
 endfacet
 facet normal 1 0 0
  outer loop
   vertex 622.95062255859375 65.003028869628906 425
   vertex 622.95062255859375 65.003028869628906 95
   vertex 622.95062255859375 70.003028869628906 425
  endloop
 endfacet
 facet normal -1 0 0
  outer loop
   vertex 620.95062255859375 405.00302124023438 90
   vertex 620.95062255859375 75.003028869628906 85
   vertex 620.95062255859375 75.003028869628906 90
  endloop
 endfacet
 facet normal -1 0 0
  outer loop
   vertex 620.95062255859375 405.00302124023438 85
   vertex 620.95062255859375 75.003028869628906 85
   vertex 620.95062255859375 405.00302124023438 90
  endloop
 endfacet
 facet normal -0 1 0
  outer loop
   vertex 622.95062255859375 405.00302124023438 85
   vertex 620.95062255859375 405.00302124023438 90
   vertex 622.95062255859375 405.00302124023438 90
  endloop
 endfacet
 facet normal 0 1 0
  outer loop
   vertex 620.95062255859375 405.00302124023438 85
   vertex 620.95062255859375 405.00302124023438 90
   vertex 622.95062255859375 405.00302124023438 85
  endloop
 endfacet
 facet normal 0 0 1
  outer loop
   vertex 622.95062255859375 405.00302124023438 90
   vertex 620.95062255859375 75.003028869628906 90
   vertex 622.95062255859375 75.003028869628906 90
  endloop
 endfacet
 facet normal 0 0 1
  outer loop
   vertex 620.95062255859375 405.00302124023438 90
   vertex 620.95062255859375 75.003028869628906 90
   vertex 622.95062255859375 405.00302124023438 90
  endloop
 endfacet
 facet normal -0 -1 0
  outer loop
   vertex 620.95062255859375 75.003028869628906 85
   vertex 622.95062255859375 75.003028869628906 90
   vertex 620.95062255859375 75.003028869628906 90
  endloop
 endfacet
 facet normal 0 -1 -0
  outer loop
   vertex 622.95062255859375 75.003028869628906 85
   vertex 622.95062255859375 75.003028869628906 90
   vertex 620.95062255859375 75.003028869628906 85
  endloop
 endfacet
 facet normal 0 0 -1
  outer loop
   vertex 620.95062255859375 405.00302124023438 85
   vertex 622.95062255859375 75.003028869628906 85
   vertex 620.95062255859375 75.003028869628906 85
  endloop
 endfacet
 facet normal 0 0 -1
  outer loop
   vertex 622.95062255859375 405.00302124023438 85
   vertex 622.95062255859375 75.003028869628906 85
   vertex 620.95062255859375 405.00302124023438 85
  endloop
 endfacet
 facet normal 1 0 0
  outer loop
   vertex 622.95062255859375 405.00302124023438 85
   vertex 622.95062255859375 75.003028869628906 90
   vertex 622.95062255859375 75.003028869628906 85
  endloop
 endfacet
 facet normal 1 -0 0
  outer loop
   vertex 622.95062255859375 405.00302124023438 90
   vertex 622.95062255859375 75.003028869628906 90
   vertex 622.95062255859375 405.00302124023438 85
  endloop
 endfacet
 facet normal -1 0 0
  outer loop
   vertex 625.05072021484375 405.00302124023438 90
   vertex 625.05072021484375 75.003028869628906 85
   vertex 625.05072021484375 75.003028869628906 90
  endloop
 endfacet
 facet normal -1 0 0
  outer loop
   vertex 625.05072021484375 405.00302124023438 85
   vertex 625.05072021484375 75.003028869628906 85
   vertex 625.05072021484375 405.00302124023438 90
  endloop
 endfacet
 facet normal -0 1 0
  outer loop
   vertex 627.00067138671875 405.00302124023438 85
   vertex 625.05072021484375 405.00302124023438 90
   vertex 627.00067138671875 405.00302124023438 90
  endloop
 endfacet
 facet normal 0 1 0
  outer loop
   vertex 625.05072021484375 405.00302124023438 85
   vertex 625.05072021484375 405.00302124023438 90
   vertex 627.00067138671875 405.00302124023438 85
  endloop
 endfacet
 facet normal 0 0 1
  outer loop
   vertex 627.00067138671875 405.00302124023438 90
   vertex 625.05072021484375 75.003028869628906 90
   vertex 627.00067138671875 75.003028869628906 90
  endloop
 endfacet
 facet normal 0 0 1
  outer loop
   vertex 625.05072021484375 405.00302124023438 90
   vertex 625.05072021484375 75.003028869628906 90
   vertex 627.00067138671875 405.00302124023438 90
  endloop
 endfacet
 facet normal -0 -1 0
  outer loop
   vertex 625.05072021484375 75.003028869628906 85
   vertex 627.00067138671875 75.003028869628906 90
   vertex 625.05072021484375 75.003028869628906 90
  endloop
 endfacet
 facet normal 0 -1 -0
  outer loop
   vertex 627.00067138671875 75.003028869628906 85
   vertex 627.00067138671875 75.003028869628906 90
   vertex 625.05072021484375 75.003028869628906 85
  endloop
 endfacet
 facet normal 0 0 -1
  outer loop
   vertex 625.05072021484375 405.00302124023438 85
   vertex 627.00067138671875 75.003028869628906 85
   vertex 625.05072021484375 75.003028869628906 85
  endloop
 endfacet
 facet normal 0 0 -1
  outer loop
   vertex 627.00067138671875 405.00302124023438 85
   vertex 627.00067138671875 75.003028869628906 85
   vertex 625.05072021484375 405.00302124023438 85
  endloop
 endfacet
 facet normal 1 0 0
  outer loop
   vertex 627.00067138671875 405.00302124023438 85
   vertex 627.00067138671875 75.003028869628906 90
   vertex 627.00067138671875 75.003028869628906 85
  endloop
 endfacet
 facet normal 1 -0 0
  outer loop
   vertex 627.00067138671875 405.00302124023438 90
   vertex 627.00067138671875 75.003028869628906 90
   vertex 627.00067138671875 405.00302124023438 85
  endloop
 endfacet
 facet normal -1 0 0
  outer loop
   vertex 618.95062255859375 70.003028869628906 95
   vertex 618.95062255859375 65.003028869628906 425
   vertex 618.95062255859375 70.003028869628906 425
  endloop
 endfacet
 facet normal -1 0 0
  outer loop
   vertex 618.95062255859375 65.003028869628906 95
   vertex 618.95062255859375 65.003028869628906 425
   vertex 618.95062255859375 70.003028869628906 95
  endloop
 endfacet
 facet normal 0 0 -1
  outer loop
   vertex 620.90057373046875 65.003028869628906 95
   vertex 618.95062255859375 70.003028869628906 95
   vertex 620.90057373046875 70.003028869628906 95
  endloop
 endfacet
 facet normal 0 0 -1
  outer loop
   vertex 618.95062255859375 65.003028869628906 95
   vertex 618.95062255859375 70.003028869628906 95
   vertex 620.90057373046875 65.003028869628906 95
  endloop
 endfacet
 facet normal -0 1 0
  outer loop
   vertex 620.90057373046875 70.003028869628906 95
   vertex 618.95062255859375 70.003028869628906 425
   vertex 620.90057373046875 70.003028869628906 425
  endloop
 endfacet
 facet normal 0 1 0
  outer loop
   vertex 618.95062255859375 70.003028869628906 95
   vertex 618.95062255859375 70.003028869628906 425
   vertex 620.90057373046875 70.003028869628906 95
  endloop
 endfacet
 facet normal 0 0 1
  outer loop
   vertex 618.95062255859375 65.003028869628906 425
   vertex 620.90057373046875 70.003028869628906 425
   vertex 618.95062255859375 70.003028869628906 425
  endloop
 endfacet
 facet normal 0 0 1
  outer loop
   vertex 620.90057373046875 65.003028869628906 425
   vertex 620.90057373046875 70.003028869628906 425
   vertex 618.95062255859375 65.003028869628906 425
  endloop
 endfacet
 facet normal -0 -1 0
  outer loop
   vertex 618.95062255859375 65.003028869628906 95
   vertex 620.90057373046875 65.003028869628906 425
   vertex 618.95062255859375 65.003028869628906 425
  endloop
 endfacet
 facet normal 0 -1 -0
  outer loop
   vertex 620.90057373046875 65.003028869628906 95
   vertex 620.90057373046875 65.003028869628906 425
   vertex 618.95062255859375 65.003028869628906 95
  endloop
 endfacet
 facet normal 1 0 0
  outer loop
   vertex 620.90057373046875 65.003028869628906 95
   vertex 620.90057373046875 70.003028869628906 425
   vertex 620.90057373046875 65.003028869628906 425
  endloop
 endfacet
 facet normal 1 0 0
  outer loop
   vertex 620.90057373046875 70.003028869628906 95
   vertex 620.90057373046875 70.003028869628906 425
   vertex 620.90057373046875 65.003028869628906 95
  endloop
 endfacet
 facet normal -1 0 -0
  outer loop
   vertex 618.95062255859375 75.003028869628906 85
   vertex 618.95062255859375 405.00302124023438 90
   vertex 618.95062255859375 405.00302124023438 85
  endloop
 endfacet
 facet normal -1 -0 0
  outer loop
   vertex 618.95062255859375 75.003028869628906 90
   vertex 618.95062255859375 405.00302124023438 90
   vertex 618.95062255859375 75.003028869628906 85
  endloop
 endfacet
 facet normal 0 -1 0
  outer loop
   vertex 620.90057373046875 75.003028869628906 90
   vertex 618.95062255859375 75.003028869628906 85
   vertex 620.90057373046875 75.003028869628906 85
  endloop
 endfacet
 facet normal 0 -1 0
  outer loop
   vertex 618.95062255859375 75.003028869628906 90
   vertex 618.95062255859375 75.003028869628906 85
   vertex 620.90057373046875 75.003028869628906 90
  endloop
 endfacet
 facet normal 0 0 -1
  outer loop
   vertex 620.90057373046875 75.003028869628906 85
   vertex 618.95062255859375 405.00302124023438 85
   vertex 620.90057373046875 405.00302124023438 85
  endloop
 endfacet
 facet normal 0 0 -1
  outer loop
   vertex 618.95062255859375 75.003028869628906 85
   vertex 618.95062255859375 405.00302124023438 85
   vertex 620.90057373046875 75.003028869628906 85
  endloop
 endfacet
 facet normal 0 1 0
  outer loop
   vertex 618.95062255859375 405.00302124023438 90
   vertex 620.90057373046875 405.00302124023438 85
   vertex 618.95062255859375 405.00302124023438 85
  endloop
 endfacet
 facet normal 0 1 -0
  outer loop
   vertex 620.90057373046875 405.00302124023438 90
   vertex 620.90057373046875 405.00302124023438 85
   vertex 618.95062255859375 405.00302124023438 90
  endloop
 endfacet
 facet normal 0 0 1
  outer loop
   vertex 618.95062255859375 75.003028869628906 90
   vertex 620.90057373046875 405.00302124023438 90
   vertex 618.95062255859375 405.00302124023438 90
  endloop
 endfacet
 facet normal 0 0 1
  outer loop
   vertex 620.90057373046875 75.003028869628906 90
   vertex 620.90057373046875 405.00302124023438 90
   vertex 618.95062255859375 75.003028869628906 90
  endloop
 endfacet
 facet normal 1 0 -0
  outer loop
   vertex 620.90057373046875 75.003028869628906 90
   vertex 620.90057373046875 405.00302124023438 85
   vertex 620.90057373046875 405.00302124023438 90
  endloop
 endfacet
 facet normal 1 0 0
  outer loop
   vertex 620.90057373046875 75.003028869628906 85
   vertex 620.90057373046875 405.00302124023438 85
   vertex 620.90057373046875 75.003028869628906 90
  endloop
 endfacet
 facet normal -1 0 0
  outer loop
   vertex 618.95062255859375 415.00302124023438 95
   vertex 618.95062255859375 410.00302124023438 425
   vertex 618.95062255859375 415.00302124023438 425
  endloop
 endfacet
 facet normal -1 0 0
  outer loop
   vertex 618.95062255859375 410.00302124023438 95
   vertex 618.95062255859375 410.00302124023438 425
   vertex 618.95062255859375 415.00302124023438 95
  endloop
 endfacet
 facet normal 0 0 -1
  outer loop
   vertex 620.90057373046875 410.00302124023438 95
   vertex 618.95062255859375 415.00302124023438 95
   vertex 620.90057373046875 415.00302124023438 95
  endloop
 endfacet
 facet normal 0 0 -1
  outer loop
   vertex 618.95062255859375 410.00302124023438 95
   vertex 618.95062255859375 415.00302124023438 95
   vertex 620.90057373046875 410.00302124023438 95
  endloop
 endfacet
 facet normal -0 1 0
  outer loop
   vertex 620.90057373046875 415.00302124023438 95
   vertex 618.95062255859375 415.00302124023438 425
   vertex 620.90057373046875 415.00302124023438 425
  endloop
 endfacet
 facet normal 0 1 0
  outer loop
   vertex 618.95062255859375 415.00302124023438 95
   vertex 618.95062255859375 415.00302124023438 425
   vertex 620.90057373046875 415.00302124023438 95
  endloop
 endfacet
 facet normal 0 0 1
  outer loop
   vertex 618.95062255859375 410.00302124023438 425
   vertex 620.90057373046875 415.00302124023438 425
   vertex 618.95062255859375 415.00302124023438 425
  endloop
 endfacet
 facet normal 0 0 1
  outer loop
   vertex 620.90057373046875 410.00302124023438 425
   vertex 620.90057373046875 415.00302124023438 425
   vertex 618.95062255859375 410.00302124023438 425
  endloop
 endfacet
 facet normal -0 -1 0
  outer loop
   vertex 618.95062255859375 410.00302124023438 95
   vertex 620.90057373046875 410.00302124023438 425
   vertex 618.95062255859375 410.00302124023438 425
  endloop
 endfacet
 facet normal 0 -1 -0
  outer loop
   vertex 620.90057373046875 410.00302124023438 95
   vertex 620.90057373046875 410.00302124023438 425
   vertex 618.95062255859375 410.00302124023438 95
  endloop
 endfacet
 facet normal 1 0 0
  outer loop
   vertex 620.90057373046875 410.00302124023438 95
   vertex 620.90057373046875 415.00302124023438 425
   vertex 620.90057373046875 410.00302124023438 425
  endloop
 endfacet
 facet normal 1 0 0
  outer loop
   vertex 620.90057373046875 415.00302124023438 95
   vertex 620.90057373046875 415.00302124023438 425
   vertex 620.90057373046875 410.00302124023438 95
  endloop
 endfacet
 facet normal -1 0 0
  outer loop
   vertex 618.95062255859375 405.00302124023438 435
   vertex 618.95062255859375 75.003028869628906 430
   vertex 618.95062255859375 75.003028869628906 435
  endloop
 endfacet
 facet normal -1 0 0
  outer loop
   vertex 618.95062255859375 405.00302124023438 430
   vertex 618.95062255859375 75.003028869628906 430
   vertex 618.95062255859375 405.00302124023438 435
  endloop
 endfacet
 facet normal -0 1 0
  outer loop
   vertex 620.90057373046875 405.00302124023438 430
   vertex 618.95062255859375 405.00302124023438 435
   vertex 620.90057373046875 405.00302124023438 435
  endloop
 endfacet
 facet normal 0 1 0
  outer loop
   vertex 618.95062255859375 405.00302124023438 430
   vertex 618.95062255859375 405.00302124023438 435
   vertex 620.90057373046875 405.00302124023438 430
  endloop
 endfacet
 facet normal 0 0 1
  outer loop
   vertex 620.90057373046875 405.00302124023438 435
   vertex 618.95062255859375 75.003028869628906 435
   vertex 620.90057373046875 75.003028869628906 435
  endloop
 endfacet
 facet normal 0 0 1
  outer loop
   vertex 618.95062255859375 405.00302124023438 435
   vertex 618.95062255859375 75.003028869628906 435
   vertex 620.90057373046875 405.00302124023438 435
  endloop
 endfacet
 facet normal -0 -1 0
  outer loop
   vertex 618.95062255859375 75.003028869628906 430
   vertex 620.90057373046875 75.003028869628906 435
   vertex 618.95062255859375 75.003028869628906 435
  endloop
 endfacet
 facet normal 0 -1 -0
  outer loop
   vertex 620.90057373046875 75.003028869628906 430
   vertex 620.90057373046875 75.003028869628906 435
   vertex 618.95062255859375 75.003028869628906 430
  endloop
 endfacet
 facet normal 0 0 -1
  outer loop
   vertex 618.95062255859375 405.00302124023438 430
   vertex 620.90057373046875 75.003028869628906 430
   vertex 618.95062255859375 75.003028869628906 430
  endloop
 endfacet
 facet normal 0 0 -1
  outer loop
   vertex 620.90057373046875 405.00302124023438 430
   vertex 620.90057373046875 75.003028869628906 430
   vertex 618.95062255859375 405.00302124023438 430
  endloop
 endfacet
 facet normal 1 0 0
  outer loop
   vertex 620.90057373046875 405.00302124023438 430
   vertex 620.90057373046875 75.003028869628906 435
   vertex 620.90057373046875 75.003028869628906 430
  endloop
 endfacet
 facet normal 1 -0 0
  outer loop
   vertex 620.90057373046875 405.00302124023438 435
   vertex 620.90057373046875 75.003028869628906 435
   vertex 620.90057373046875 405.00302124023438 430
  endloop
 endfacet
endsolid
